<mxfile host="app.diagrams.net" agent="Mozilla/5.0 (Windows NT 10.0; Win64; x64) AppleWebKit/537.36 (KHTML, like Gecko) Chrome/131.0.0.0 Safari/537.36" version="24.8.6">
  <diagram id="8IhAphBXhPvrPBu4WVxc" name="1 oldal">
    <mxGraphModel dx="683" dy="355" grid="1" gridSize="10" guides="1" tooltips="1" connect="1" arrows="1" fold="1" page="1" pageScale="1" pageWidth="827" pageHeight="1169" math="0" shadow="0">
      <root>
        <mxCell id="0" />
        <mxCell id="1" parent="0" />
        <mxCell id="WaCpAJyZaZDqBDX5zsEk-1" value="" style="rounded=0;whiteSpace=wrap;html=1;" vertex="1" parent="1">
          <mxGeometry x="250" y="130" width="350" height="340" as="geometry" />
        </mxCell>
        <mxCell id="WaCpAJyZaZDqBDX5zsEk-2" value="Jury" style="shape=umlActor;verticalLabelPosition=bottom;verticalAlign=top;html=1;outlineConnect=0;" vertex="1" parent="1">
          <mxGeometry x="410" y="490" width="30" height="60" as="geometry" />
        </mxCell>
        <mxCell id="WaCpAJyZaZDqBDX5zsEk-3" value="Regisztráció" style="ellipse;whiteSpace=wrap;html=1;" vertex="1" parent="1">
          <mxGeometry x="270" y="420" width="120" height="40" as="geometry" />
        </mxCell>
        <mxCell id="WaCpAJyZaZDqBDX5zsEk-4" value="Rendszer" style="text;html=1;align=center;verticalAlign=middle;resizable=0;points=[];autosize=1;strokeColor=none;fillColor=none;" vertex="1" parent="1">
          <mxGeometry x="390" y="130" width="70" height="30" as="geometry" />
        </mxCell>
        <mxCell id="WaCpAJyZaZDqBDX5zsEk-5" value="Bejelentkezés/&lt;div&gt;Kijelentkezés&lt;/div&gt;" style="ellipse;whiteSpace=wrap;html=1;" vertex="1" parent="1">
          <mxGeometry x="270" y="370" width="120" height="40" as="geometry" />
        </mxCell>
        <mxCell id="WaCpAJyZaZDqBDX5zsEk-6" value="Ötletdobozok megtekintése" style="ellipse;whiteSpace=wrap;html=1;" vertex="1" parent="1">
          <mxGeometry x="270" y="320" width="120" height="40" as="geometry" />
        </mxCell>
        <mxCell id="WaCpAJyZaZDqBDX5zsEk-7" value="Ötletek létrehozása" style="ellipse;whiteSpace=wrap;html=1;" vertex="1" parent="1">
          <mxGeometry x="460" y="420" width="120" height="40" as="geometry" />
        </mxCell>
        <mxCell id="WaCpAJyZaZDqBDX5zsEk-8" value="Saját ötlet szer-&lt;div&gt;kesztése/törlése&lt;/div&gt;" style="ellipse;whiteSpace=wrap;html=1;" vertex="1" parent="1">
          <mxGeometry x="460" y="370" width="120" height="40" as="geometry" />
        </mxCell>
        <mxCell id="WaCpAJyZaZDqBDX5zsEk-9" value="Kommentek létrehozása" style="ellipse;whiteSpace=wrap;html=1;" vertex="1" parent="1">
          <mxGeometry x="460" y="320" width="120" height="40" as="geometry" />
        </mxCell>
        <mxCell id="WaCpAJyZaZDqBDX5zsEk-10" value="Saját komment&lt;div&gt;szerkesztése/&lt;span style=&quot;background-color: initial;&quot;&gt;törlése&lt;/span&gt;&lt;/div&gt;" style="ellipse;whiteSpace=wrap;html=1;" vertex="1" parent="1">
          <mxGeometry x="265" y="170" width="130" height="50" as="geometry" />
        </mxCell>
        <mxCell id="WaCpAJyZaZDqBDX5zsEk-11" value="" style="endArrow=classic;html=1;rounded=0;entryX=1;entryY=0.5;entryDx=0;entryDy=0;exitX=0.5;exitY=0;exitDx=0;exitDy=0;exitPerimeter=0;" edge="1" parent="1" source="WaCpAJyZaZDqBDX5zsEk-2" target="WaCpAJyZaZDqBDX5zsEk-10">
          <mxGeometry width="50" height="50" relative="1" as="geometry">
            <mxPoint x="425" y="480" as="sourcePoint" />
            <mxPoint x="360" y="550" as="targetPoint" />
            <Array as="points">
              <mxPoint x="425" y="195" />
            </Array>
          </mxGeometry>
        </mxCell>
        <mxCell id="WaCpAJyZaZDqBDX5zsEk-12" value="" style="endArrow=classic;html=1;rounded=0;entryX=1;entryY=0.5;entryDx=0;entryDy=0;exitX=0.5;exitY=0;exitDx=0;exitDy=0;exitPerimeter=0;" edge="1" parent="1" source="WaCpAJyZaZDqBDX5zsEk-2" target="WaCpAJyZaZDqBDX5zsEk-6">
          <mxGeometry width="50" height="50" relative="1" as="geometry">
            <mxPoint x="430" y="480" as="sourcePoint" />
            <mxPoint x="430" y="350" as="targetPoint" />
            <Array as="points">
              <mxPoint x="425" y="340" />
            </Array>
          </mxGeometry>
        </mxCell>
        <mxCell id="WaCpAJyZaZDqBDX5zsEk-13" value="" style="endArrow=classic;html=1;rounded=0;entryX=0;entryY=0.5;entryDx=0;entryDy=0;exitX=0.5;exitY=0;exitDx=0;exitDy=0;exitPerimeter=0;" edge="1" parent="1" source="WaCpAJyZaZDqBDX5zsEk-2" target="WaCpAJyZaZDqBDX5zsEk-9">
          <mxGeometry width="50" height="50" relative="1" as="geometry">
            <mxPoint x="390" y="420" as="sourcePoint" />
            <mxPoint x="440" y="370" as="targetPoint" />
            <Array as="points">
              <mxPoint x="425" y="340" />
            </Array>
          </mxGeometry>
        </mxCell>
        <mxCell id="WaCpAJyZaZDqBDX5zsEk-14" value="" style="endArrow=classic;html=1;rounded=0;entryX=0;entryY=0.5;entryDx=0;entryDy=0;exitX=0.5;exitY=0;exitDx=0;exitDy=0;exitPerimeter=0;" edge="1" parent="1" source="WaCpAJyZaZDqBDX5zsEk-2" target="WaCpAJyZaZDqBDX5zsEk-8">
          <mxGeometry width="50" height="50" relative="1" as="geometry">
            <mxPoint x="390" y="420" as="sourcePoint" />
            <mxPoint x="440" y="370" as="targetPoint" />
            <Array as="points">
              <mxPoint x="425" y="390" />
            </Array>
          </mxGeometry>
        </mxCell>
        <mxCell id="WaCpAJyZaZDqBDX5zsEk-15" value="" style="endArrow=classic;html=1;rounded=0;entryX=1;entryY=0.5;entryDx=0;entryDy=0;exitX=0.5;exitY=0;exitDx=0;exitDy=0;exitPerimeter=0;" edge="1" parent="1" source="WaCpAJyZaZDqBDX5zsEk-2" target="WaCpAJyZaZDqBDX5zsEk-5">
          <mxGeometry width="50" height="50" relative="1" as="geometry">
            <mxPoint x="390" y="420" as="sourcePoint" />
            <mxPoint x="440" y="370" as="targetPoint" />
            <Array as="points">
              <mxPoint x="425" y="390" />
            </Array>
          </mxGeometry>
        </mxCell>
        <mxCell id="WaCpAJyZaZDqBDX5zsEk-16" value="" style="endArrow=classic;html=1;rounded=0;entryX=0;entryY=0.5;entryDx=0;entryDy=0;exitX=0.5;exitY=0;exitDx=0;exitDy=0;exitPerimeter=0;" edge="1" parent="1" source="WaCpAJyZaZDqBDX5zsEk-2" target="WaCpAJyZaZDqBDX5zsEk-7">
          <mxGeometry width="50" height="50" relative="1" as="geometry">
            <mxPoint x="390" y="480" as="sourcePoint" />
            <mxPoint x="440" y="430" as="targetPoint" />
            <Array as="points">
              <mxPoint x="425" y="440" />
            </Array>
          </mxGeometry>
        </mxCell>
        <mxCell id="WaCpAJyZaZDqBDX5zsEk-17" value="" style="endArrow=classic;html=1;rounded=0;exitX=0.5;exitY=0;exitDx=0;exitDy=0;exitPerimeter=0;entryX=1;entryY=0.5;entryDx=0;entryDy=0;" edge="1" parent="1" source="WaCpAJyZaZDqBDX5zsEk-2" target="WaCpAJyZaZDqBDX5zsEk-3">
          <mxGeometry width="50" height="50" relative="1" as="geometry">
            <mxPoint x="390" y="480" as="sourcePoint" />
            <mxPoint x="440" y="430" as="targetPoint" />
            <Array as="points">
              <mxPoint x="425" y="440" />
            </Array>
          </mxGeometry>
        </mxCell>
        <mxCell id="WaCpAJyZaZDqBDX5zsEk-18" value="Ötletek kedvelése/&lt;div&gt;kedvelés vissza-&lt;/div&gt;&lt;div&gt;vonása&lt;/div&gt;" style="ellipse;whiteSpace=wrap;html=1;" vertex="1" parent="1">
          <mxGeometry x="260" y="230" width="140" height="80" as="geometry" />
        </mxCell>
        <mxCell id="WaCpAJyZaZDqBDX5zsEk-19" value="Kommentek kedvelése/&lt;div&gt;kedvelés vissza-&lt;/div&gt;&lt;div&gt;vonása&lt;/div&gt;" style="ellipse;whiteSpace=wrap;html=1;" vertex="1" parent="1">
          <mxGeometry x="450" y="230" width="140" height="80" as="geometry" />
        </mxCell>
        <mxCell id="WaCpAJyZaZDqBDX5zsEk-20" value="" style="endArrow=classic;html=1;rounded=0;entryX=1;entryY=0.5;entryDx=0;entryDy=0;exitX=0.5;exitY=0;exitDx=0;exitDy=0;exitPerimeter=0;" edge="1" parent="1" source="WaCpAJyZaZDqBDX5zsEk-2" target="WaCpAJyZaZDqBDX5zsEk-18">
          <mxGeometry width="50" height="50" relative="1" as="geometry">
            <mxPoint x="400" y="350" as="sourcePoint" />
            <mxPoint x="450" y="300" as="targetPoint" />
            <Array as="points">
              <mxPoint x="425" y="270" />
            </Array>
          </mxGeometry>
        </mxCell>
        <mxCell id="WaCpAJyZaZDqBDX5zsEk-21" value="" style="endArrow=classic;html=1;rounded=0;entryX=0;entryY=0.5;entryDx=0;entryDy=0;exitX=0.5;exitY=0;exitDx=0;exitDy=0;exitPerimeter=0;" edge="1" parent="1" source="WaCpAJyZaZDqBDX5zsEk-2" target="WaCpAJyZaZDqBDX5zsEk-19">
          <mxGeometry width="50" height="50" relative="1" as="geometry">
            <mxPoint x="400" y="350" as="sourcePoint" />
            <mxPoint x="450" y="300" as="targetPoint" />
            <Array as="points">
              <mxPoint x="425" y="270" />
            </Array>
          </mxGeometry>
        </mxCell>
        <mxCell id="WaCpAJyZaZDqBDX5zsEk-22" value="Ötletek pontozása" style="ellipse;whiteSpace=wrap;html=1;" vertex="1" parent="1">
          <mxGeometry x="455" y="170" width="130" height="50" as="geometry" />
        </mxCell>
        <mxCell id="WaCpAJyZaZDqBDX5zsEk-23" value="" style="endArrow=classic;html=1;rounded=0;entryX=0;entryY=0.5;entryDx=0;entryDy=0;exitX=0.5;exitY=0;exitDx=0;exitDy=0;exitPerimeter=0;" edge="1" parent="1" source="WaCpAJyZaZDqBDX5zsEk-2" target="WaCpAJyZaZDqBDX5zsEk-22">
          <mxGeometry width="50" height="50" relative="1" as="geometry">
            <mxPoint x="435" y="500" as="sourcePoint" />
            <mxPoint x="405" y="205" as="targetPoint" />
            <Array as="points">
              <mxPoint x="425" y="195" />
            </Array>
          </mxGeometry>
        </mxCell>
      </root>
    </mxGraphModel>
  </diagram>
</mxfile>
